<svg width="99" height="33" viewBox="0 0 99 33" xmlns="http://www.w3.org/2000/svg"><g fill="none" fill-rule="evenodd"><path d="M93.161,11.254 C93.161,11.002 92.983,10.873 92.731,10.873 C92.057,10.873 91.684,11.53 91.562,12.066 C92.032,12.074 93.161,11.952 93.161,11.254" fill="#FFF"/><path d="M92.308 13.754C92.779 13.754 93.137 13.534 93.356 13.396L93.648 14.03C93.444 14.184 92.876 14.5 92.072 14.5 90.961 14.5 90.498 13.811 90.498 12.869 90.498 11.465 91.4 10.175 92.876 10.175 93.615 10.175 94.045 10.556 94.045 11.124 94.045 12.544 92.341 12.715 91.473 12.723 91.432 13.242 91.618 13.754 92.308 13.754ZM90.072 11.636 89.585 14.379 88.619 14.379 89.073 11.806C89.098 11.684 89.114 11.562 89.114 11.457 89.114 11.148 89.017 10.921 88.651 10.921 88.172 10.921 87.808 11.327 87.734 11.749L87.272 14.379 86.306 14.379 86.761 11.806C86.785 11.684 86.801 11.562 86.801 11.449 86.801 11.157 86.72 10.921 86.33 10.921 85.844 10.921 85.486 11.327 85.413 11.765L84.958 14.379 83.992 14.379 84.585 11.002 84.642 10.296 85.445 10.296 85.429 10.799C85.778 10.402 86.217 10.175 86.728 10.175 87.239 10.175 87.597 10.369 87.734 10.824 88.06 10.402 88.522 10.175 89.041 10.175 89.731 10.175 90.112 10.515 90.112 11.197 90.112 11.327 90.096 11.49 90.072 11.636ZM93.55 4.419C91.239 3.037 89.935 1.573 89.475.934 89.475.934 89.312.681 89.126.681 88.941.681 88.79.934 88.79.934 88.336 1.574 87.002 3.045 84.68 4.432 82.053 6.01 80.101 8.691 80.101 11.979 80.101 16.964 84.142 21.004 89.125 21.004 94.11 21.004 98.151 16.964 98.151 11.979 98.151 8.682 96.19 5.994 93.55 4.419L93.55 4.419ZM6.673 8.566C6.298 8.399 5.756 8.232 5.109 8.232 3.128 8.232 2.46 10.11 2.46 12.153 2.46 14.052 2.919 15.699 4.608 15.699 5.881 15.699 6.673 14.782 6.673 13.968L6.673 8.566ZM6.673 6.668 6.673 2.726 9.134 2.726 9.134 15.178 9.322 17.222 7.195 17.222 7.028 16.095 6.945 16.074C6.298 17.034 5.255 17.535 4.108 17.535.855 17.535 0 14.99 0 12.383 0 8.816 1.835 6.418 5.047 6.418 5.714 6.418 6.194 6.522 6.673 6.668L6.673 6.668ZM13.745 17.222 11.263 17.222 11.263 8.42 11.075 6.731 13.119 6.731 13.37 8.253C13.828 7.064 14.85 6.418 15.893 6.418 16.519 6.418 17.103 6.564 17.562 6.835L17.124 8.942C16.665 8.691 16.185 8.524 15.643 8.524 14.517 8.524 13.787 9.421 13.745 10.631L13.745 17.222M26.969 6.731 26.969 15.469 27.136 17.222 25.008 17.222 24.862 15.991 24.779 15.991C24.07 17.034 22.943 17.514 21.755 17.514 19.461 17.514 18.314 16.303 18.314 13.843L18.314 6.731 20.796 6.731 20.796 13.384C20.796 14.656 21.025 15.594 22.422 15.594 23.548 15.594 24.487 14.594 24.487 13.593L24.487 6.731 26.969 6.731M32.609 8.399C32.234 8.399 31.817 8.441 31.379 8.545L31.379 14.969C31.921 15.324 32.609 15.49 33.151 15.49 34.924 15.49 35.467 13.739 35.467 12.07 35.467 9.63 34.528 8.399 32.609 8.399ZM31.379 21.601 28.897 21.601 28.897 7.106C30.461 6.626 32.004 6.418 33.068 6.418 36.405 6.418 37.969 8.274 37.969 11.882 37.969 15.553 36.28 17.535 33.548 17.535 32.734 17.535 31.921 17.263 31.379 16.929L31.379 21.601 31.379 21.601ZM45.767 8.504C45.454 8.358 44.849 8.232 44.202 8.232 42.221 8.232 41.553 10.089 41.553 12.341 41.553 14.072 41.971 15.719 43.723 15.719 45.016 15.719 45.767 14.802 45.767 13.906L45.767 8.504ZM48.228 15.219 48.415 17.222 46.267 17.222 46.121 16.116 46.038 16.095C45.391 17.034 44.327 17.493 43.18 17.493 40.24 17.493 39.093 15.407 39.093 12.425 39.093 8.754 40.928 6.418 44.515 6.418 45.204 6.418 46.726 6.584 48.228 7.148L48.228 15.219 48.228 15.219ZM56.168 17.222 58.65 17.222 58.65 6.731 56.168 6.731 56.168 17.222ZM57.4 2.33C58.254 2.33 58.838 2.955 58.838 3.727 58.838 4.52 58.233 5.104 57.4 5.104 56.523 5.104 55.96 4.52 55.96 3.727 55.96 2.955 56.544 2.33 57.4 2.33L57.4 2.33ZM67.988 15.277 62.993 15.277 62.993 15.233C63.53 14.673 64.964 12.778 65.483 12.153L68.608 8.347 68.608 6.731 60.499 6.731 60.499 8.677 65.465 8.677 65.465 8.72C64.904 9.323 64.363 10.005 63.826 10.652L59.884 15.692 59.884 17.222 69.388 17.222C68.557 16.559 68.326 16.101 67.988 15.277M55.163 15.24C54.726 15.428 54.267 15.574 53.851 15.574 52.995 15.574 52.724 15.094 52.724 13.801L52.724 2.747 50.241 2.747 50.241 14.323C50.241 15.886 50.409 17.535 53.225 17.535 53.881 17.535 54.602 17.389 55.163 17.171L55.163 15.24" fill="#FFF"/><path d="M73.701 8.191C74.452 8.191 74.952 8.65 74.952 9.421 74.952 11.027 72.305 11.382 71.178 11.361 71.24 9.818 72.033 8.191 73.701 8.191ZM76.561 14.791 76.517 14.719C76.017 15.073 75.12 15.636 73.889 15.636 72.116 15.636 71.345 14.323 71.261 12.967 73.181 12.946 77.164 12.529 77.164 9.317 77.164 7.461 75.892 6.418 73.847 6.418 70.531 6.418 68.759 9.129 68.759 12.195 68.759 15.324 70.177 17.535 73.618 17.535 75.536 17.535 76.883 16.715 77.399 16.282 77.074 15.813 76.792 15.318 76.561 14.791L76.561 14.791ZM41.985 25.535 41.985 25.127C41.985 24.992 41.913 24.867 41.796 24.799L41.445 24.595C41.329 24.527 41.185 24.527 41.068 24.595L40.717 24.799C40.6 24.867 40.528 24.992 40.528 25.127L40.528 25.535C40.528 25.671 40.6 25.795 40.717 25.863L41.068 26.067C41.185 26.135 41.329 26.135 41.445 26.067L41.796 25.863C41.913 25.795 41.985 25.671 41.985 25.535M42.761 23.685 42.761 23.289C42.761 23.169 42.696 23.056 42.591 22.995L42.247 22.799C42.141 22.738 42.013 22.738 41.908 22.799L41.565 22.995C41.458 23.056 41.394 23.169 41.394 23.289L41.394 23.685C41.394 23.806 41.458 23.92 41.565 23.98L41.908 24.176C42.013 24.236 42.141 24.236 42.247 24.176L42.591 23.98C42.696 23.916 42.761 23.806 42.761 23.685M39.853 25.52 39.853 25.135C39.853 25.025 39.796 24.927 39.702 24.874L39.37 24.682C39.276 24.63 39.163 24.63 39.068 24.682L38.735 24.874C38.642 24.927 38.585 25.029 38.585 25.135L38.585 25.52C38.585 25.63 38.642 25.727 38.735 25.78L39.068 25.972C39.163 26.025 39.276 26.025 39.37 25.972L39.702 25.78C39.796 25.727 39.853 25.63 39.853 25.52M40.777 23.674 40.777 23.301C40.777 23.207 40.728 23.12 40.645 23.071L40.321 22.885C40.237 22.836 40.139 22.836 40.056 22.885L39.732 23.071C39.649 23.12 39.6 23.207 39.6 23.301L39.6 23.674C39.6 23.769 39.649 23.855 39.732 23.905L40.056 24.09C40.139 24.139 40.237 24.139 40.321 24.09L40.645 23.905C40.724 23.855 40.777 23.769 40.777 23.674" fill="#FFF"/><path d="M39.124 26.852 39.124 28.652C39.124 28.878 39.245 29.089 39.442 29.203L42.004 30.682C42.2 30.796 42.442 30.796 42.638 30.682L45.196 29.203C45.393 29.089 45.514 28.878 45.514 28.652L45.514 25.698C45.514 25.471 45.393 25.259 45.196 25.146L43.638 24.248C43.48 24.158 43.286 24.158 43.128 24.248L42.57 24.569C42.412 24.66 42.317 24.825 42.317 25.01L42.317 25.656C42.317 25.837 42.218 26.003 42.064 26.098L41.506 26.418C41.347 26.509 41.155 26.509 40.996 26.418L40.438 26.098C40.279 26.007 40.087 26.007 39.932 26.098L39.374 26.418C39.218 26.505 39.124 26.671 39.124 26.852M56.835 29.867 56.212 29.867C56.147 29.867 56.099 29.818 56.099 29.754L56.099 26.025C56.099 25.962 56.147 25.912 56.212 25.912L56.835 25.912C56.898 25.912 56.948 25.962 56.948 26.025L56.948 29.754C56.948 29.814 56.898 29.867 56.835 29.867M56.525 24.263C56.811 24.263 57.042 24.495 57.042 24.779 57.042 25.065 56.811 25.297 56.525 25.297 56.24 25.297 56.008 25.065 56.008 24.779 56.008 24.495 56.24 24.263 56.525 24.263M54.673 28.75C54.673 27.951 52.74 28.203 52.74 26.901 52.74 26.18 53.415 25.81 54.136 25.81 54.578 25.81 54.91 25.908 55.133 26.003 55.186 26.025 55.216 26.086 55.193 26.142L55.05 26.565C55.027 26.629 54.959 26.66 54.899 26.633 54.707 26.551 54.412 26.445 54.152 26.445 53.8 26.445 53.563 26.633 53.563 26.886 53.563 27.542 55.488 27.441 55.488 28.652 55.488 29.275 55.039 29.962 53.982 29.962 53.309 29.962 52.906 29.792 52.688 29.667 52.642 29.641 52.62 29.584 52.639 29.535L52.789 29.078C52.812 29.007 52.895 28.98 52.959 29.018 53.137 29.131 53.495 29.313 53.933 29.313 54.453 29.313 54.673 29.041 54.673 28.75M59.423 29.279C58.805 29.279 58.57 28.766 58.57 27.889 58.57 27.014 58.805 26.501 59.423 26.501 60.043 26.501 60.276 27.014 60.276 27.889 60.276 28.766 60.043 29.279 59.423 29.279ZM59.423 25.814C58.31 25.814 57.683 26.581 57.683 27.889 57.683 29.199 58.31 29.965 59.423 29.965 60.537 29.965 61.163 29.199 61.163 27.889 61.163 26.581 60.537 25.814 59.423 25.814L59.423 25.814ZM50.182 29.229C49.472 29.229 49.023 28.72 49.023 27.116 49.023 25.513 49.472 25.003 50.182 25.003 50.89 25.003 51.34 25.513 51.34 27.116 51.34 28.72 50.89 29.229 50.182 29.229ZM50.182 24.263C48.917 24.263 48.08 25.245 48.08 27.116 48.08 28.984 48.917 29.969 50.182 29.969 51.446 29.969 52.284 28.988 52.284 27.116 52.28 25.245 51.442 24.263 50.182 24.263L50.182 24.263ZM65.944 29.06 64.054 29.06 64.054 24.474C64.054 24.41 64.005 24.362 63.94 24.362L63.242 24.362C63.178 24.362 63.129 24.41 63.129 24.474L63.129 29.754C63.129 29.818 63.178 29.867 63.242 29.867L65.944 29.867C66.008 29.867 66.058 29.818 66.058 29.754L66.058 29.173C66.058 29.112 66.008 29.06 65.944 29.06M76.458 28.75C76.458 27.951 74.526 28.203 74.526 26.901 74.526 26.18 75.201 25.81 75.922 25.81 76.364 25.81 76.695 25.908 76.919 26.003 76.971 26.025 77.002 26.086 76.979 26.142L76.835 26.565C76.813 26.629 76.745 26.66 76.685 26.633 76.492 26.551 76.198 26.445 75.938 26.445 75.587 26.445 75.349 26.633 75.349 26.886 75.349 27.542 77.273 27.441 77.273 28.652 77.273 29.275 76.825 29.962 75.768 29.962 75.095 29.962 74.692 29.792 74.473 29.667 74.428 29.641 74.405 29.584 74.425 29.535L74.575 29.078C74.598 29.007 74.68 28.98 74.746 29.018 74.922 29.131 75.281 29.313 75.719 29.313 76.243 29.313 76.458 29.041 76.458 28.75M68.744 28.822C68.744 28.822 68.428 29.313 67.959 29.313 67.492 29.313 67.238 28.999 67.238 28.607 67.238 28.214 67.492 27.919 67.937 27.919 68.383 27.919 68.741 28.233 68.741 28.233L68.741 28.822 68.744 28.822ZM68.091 25.814C67.318 25.814 66.767 26.018 66.555 26.116 66.503 26.139 66.477 26.203 66.495 26.26L66.658 26.697C66.681 26.755 66.744 26.784 66.801 26.765 67.008 26.689 67.484 26.535 67.941 26.535 68.544 26.535 68.741 26.886 68.741 27.305L68.741 27.644C68.741 27.644 68.383 27.324 67.779 27.324 66.865 27.324 66.355 27.969 66.355 28.682 66.355 29.501 66.933 29.965 67.586 29.965 68.386 29.965 68.741 29.419 68.741 29.419L68.774 29.761C68.783 29.818 68.828 29.863 68.888 29.863L69.477 29.863C69.541 29.863 69.59 29.814 69.59 29.75L69.59 26.901C69.597 26.354 68.983 25.814 68.091 25.814L68.091 25.814ZM72.179 29.297C71.586 29.297 71.322 28.656 71.322 28.335L71.322 27.41C71.367 26.845 71.715 26.467 72.159 26.467 72.719 26.467 72.99 27.067 72.99 27.788 72.99 28.576 72.757 29.297 72.179 29.297ZM72.337 25.814C71.556 25.814 71.322 26.441 71.322 26.441L71.322 24.203C71.322 24.139 71.273 24.09 71.209 24.09L71.126 24.09C71.085 24.09 71.047 24.1 71.013 24.12L70.53 24.399C70.496 24.418 70.474 24.456 70.474 24.498L70.474 29.75C70.474 29.814 70.522 29.863 70.586 29.863L71.133 29.863C71.186 29.863 71.231 29.826 71.243 29.772L71.318 29.425C71.318 29.419 71.322 29.41 71.322 29.403 71.322 29.41 71.322 29.414 71.322 29.414 71.322 29.414 71.658 29.962 72.405 29.962 73.247 29.962 73.873 29.093 73.873 27.783 73.873 26.735 73.443 25.814 72.337 25.814L72.337 25.814ZM30.844 29.297C30.251 29.297 29.988 28.656 29.988 28.335L29.988 27.41C30.033 26.845 30.38 26.467 30.825 26.467 31.383 26.467 31.655 27.067 31.655 27.788 31.655 28.576 31.421 29.297 30.844 29.297ZM31.002 25.814C30.221 25.814 29.988 26.441 29.988 26.441L29.988 24.203C29.988 24.139 29.938 24.09 29.874 24.09L29.791 24.09C29.749 24.09 29.711 24.1 29.678 24.12L29.195 24.399C29.16 24.418 29.138 24.456 29.138 24.498L29.138 29.75C29.138 29.814 29.187 29.863 29.251 29.863L29.798 29.863C29.852 29.863 29.897 29.826 29.907 29.772L29.983 29.425C29.983 29.419 29.988 29.41 29.988 29.403 29.988 29.41 29.988 29.414 29.988 29.414 29.988 29.414 30.323 29.962 31.07 29.962 31.912 29.962 32.538 29.093 32.538 27.783 32.538 26.735 32.108 25.814 31.002 25.814L31.002 25.814ZM35.59 25.952 34.628 28.894 33.655 25.952 32.729 25.952 34.188 29.975C34.07 30.277 33.95 30.497 33.831 30.626 33.681 30.792 33.499 30.831 33.29 30.801 33.239 30.795 33.184 30.784 33.127 30.767L33.034 30.742 32.96 31.491 33.029 31.507C33.111 31.526 33.191 31.539 33.273 31.548 33.353 31.557 33.431 31.56 33.508 31.56 33.851 31.56 34.136 31.458 34.356 31.254 34.57 31.057 34.763 30.715 34.93 30.244L36.438 26.059 36.476 25.952 35.59 25.952" fill="#FFF"/></g></svg>